<svg width="430" height="932" viewBox="0 0 430 932" fill="none" xmlns="http://www.w3.org/2000/svg">
<g clip-path="url(#clip0_326_10606)">
<path d="M309.442 1007.9L16.9118 1215.71L-286.176 910.207L309.442 1007.9Z" fill="url(#paint0_linear_326_10606)"/>
<path d="M-43.2611 785.495L-452.764 423.088L-258.938 301.881L-43.2611 785.495Z" fill="url(#paint1_linear_326_10606)"/>
<path d="M309.442 1007.9L-286.176 910.207L-43.2598 785.496L309.442 1007.9Z" fill="url(#paint2_linear_326_10606)"/>
<path d="M611.549 803.938L309.441 1007.9L-43.2612 785.495L611.549 803.938Z" fill="url(#paint3_linear_326_10606)"/>
<path d="M187.139 -67.1066L-864.809 -385.928L-615.639 -620.825L187.139 -67.1066Z" fill="url(#paint4_linear_326_10606)"/>
<path d="M-34.9852 164.245L-830.384 164.14L187.139 -67.107L-34.9852 164.245Z" fill="url(#paint5_linear_326_10606)"/>
<path d="M615.591 269.145L-34.9838 164.247L187.14 -67.1053L615.591 269.145Z" fill="url(#paint6_linear_326_10606)"/>
<path d="M-20.1076 -489.297L187.139 -67.1065L-615.639 -620.825L-20.1076 -489.297Z" fill="url(#paint7_linear_326_10606)"/>
<path d="M953.911 37.9563L615.59 269.143L187.139 -67.1068L953.911 37.9563Z" fill="url(#paint8_linear_326_10606)"/>
<path d="M953.911 37.9563L187.139 -67.1068L606.946 -307.723L953.911 37.9563Z" fill="url(#paint9_linear_326_10606)"/>
<path d="M606.946 -307.722L187.139 -67.1062L-20.1075 -489.297L606.946 -307.722Z" fill="url(#paint10_linear_326_10606)"/>
<path d="M191.702 745.767L-258.937 301.881L-34.9847 164.246L191.702 745.767Z" fill="url(#paint11_linear_326_10606)"/>
<path d="M611.549 803.938L-43.2612 785.495L191.702 745.767L611.549 803.938Z" fill="url(#paint12_linear_326_10606)"/>
<path d="M191.702 745.768L-43.2612 785.496L-258.938 301.881L191.702 745.768Z" fill="url(#paint13_linear_326_10606)"/>
<path d="M615.59 269.144L191.702 745.767L-34.9848 164.246L615.59 269.144Z" fill="url(#paint14_linear_326_10606)"/>
<path d="M906.066 944.106L191.702 745.767L615.589 269.144L906.066 944.106Z" fill="url(#paint15_linear_326_10606)"/>
<path d="M906.066 944.106L611.549 803.938L191.702 745.767L906.066 944.106Z" fill="url(#paint16_linear_326_10606)"/>
<path d="M-830.383 164.14L187.139 -67.1065L-258 -201.968L-830.383 164.14Z" fill="url(#paint17_linear_326_10606)"/>
<path d="M-286.176 910.207L-211.665 921.907L-137.098 933.832L11.7872 958.032L160.638 982.671L235.159 995.182L309.442 1007.9L234.931 996.197L160.443 984.204L11.4789 960.072L-137.372 935.433L-211.746 922.933L-286.176 910.207Z" fill="url(#paint18_linear_326_10606)"/>
<path d="M16.9101 1215.7L-21.3218 1177.81L-59.4746 1139.85L-135.317 1063.67L-210.912 987.148L-248.59 948.784L-286.178 910.205L-247.867 948.03L-209.793 986.057L-133.95 1062.23L-58.3562 1138.76L-20.6777 1177.13L16.9101 1215.7Z" fill="url(#paint19_linear_326_10606)"/>
<path d="M-258.937 301.88L-231.539 362.145L-204.22 422.478L-150.179 543.244L-96.4545 664.28L-69.7446 724.859L-43.2604 785.495L-70.7377 725.297L-97.9104 664.976L-152.019 544.131L-205.743 423.096L-232.453 362.516L-258.937 301.88Z" fill="url(#paint20_linear_326_10606)"/>
<path d="M309.442 1007.9L234.931 996.197L160.443 984.204L11.4789 960.072L-137.372 935.433L-211.746 922.933L-286.176 910.207L-211.665 921.907L-137.098 933.832L11.7872 958.032L160.638 982.671L235.159 995.182L309.442 1007.9Z" fill="url(#paint21_linear_326_10606)"/>
<path d="M-43.2606 785.497L1.03513 812.88L45.3194 840.41L133.639 895.818L221.71 951.576L265.655 979.669L309.442 1007.9L265.146 980.514L220.862 952.984L132.542 897.575L44.471 841.818L0.526084 813.725L-43.2606 785.497Z" fill="url(#paint22_linear_326_10606)"/>
<path d="M309.442 1007.9L265.146 980.514L220.862 952.984L132.542 897.575L44.471 841.818L0.526084 813.725L-43.2606 785.497L1.03513 812.88L45.3194 840.41L133.639 895.818L221.71 951.576L265.655 979.669L309.442 1007.9Z" fill="url(#paint23_linear_326_10606)"/>
<path d="M611.549 803.939L574.041 829.813L536.466 855.608L461.057 906.736L385.378 957.547L347.477 982.801L309.441 1007.9L346.881 981.942L384.524 956.226L459.932 905.099L535.611 854.287L573.512 829.034L611.549 803.939Z" fill="url(#paint24_linear_326_10606)"/>
<path d="M-615.639 -620.825L-515.032 -551.986L-414.504 -483.08L-213.707 -344.771L-13.0809 -206.181L87.1081 -136.711L187.139 -67.1065L86.4525 -135.878L-13.9967 -204.852L-214.872 -343.093L-415.42 -481.751L-515.541 -551.142L-615.639 -620.825Z" fill="url(#paint25_linear_326_10606)"/>
<path d="M187.139 -67.1069C178.032 -57.2804 168.937 -47.6004 159.762 -37.853L132.25 -8.75735C113.833 10.6584 95.3607 29.8486 76.9441 49.2643L21.2217 106.958L-6.77448 135.647C-16.1515 145.157 -25.4612 154.746 -34.9058 164.178C-25.7987 154.351 -16.7032 144.671 -7.52866 134.924L19.9835 105.828L75.3568 47.8857C93.9084 28.628 112.46 9.37032 131.079 -9.80826L159.075 -38.4971C168.306 -48.0189 177.616 -57.6082 187.139 -67.1069Z" fill="url(#paint26_linear_326_10606)"/>
<path d="M-830.383 164.14L-703.226 134.716L-576.159 105.505L-321.834 47.4678L-67.4769 -10.0507L59.8368 -38.6519L187.139 -67.1065L59.9816 -37.6819L-67.0853 -8.47128L-321.41 49.5659L-575.768 107.084L-703.014 135.765L-830.383 164.14Z" fill="url(#paint27_linear_326_10606)"/>
<path d="M187.139 -67.1057L241.004 -25.4739L294.71 16.2926L402.02 100.186L508.936 184.418L562.382 226.68L615.59 269.145L561.726 227.513L507.952 185.667L400.709 101.853L293.727 17.5422L240.348 -24.6408L187.139 -67.1057Z" fill="url(#paint28_linear_326_10606)"/>
<path d="M-34.9855 164.245C-25.8784 154.419 -16.7829 144.739 -7.60837 134.992L19.9038 105.896C38.3204 86.4803 56.7929 67.2901 75.2096 47.8744L130.932 -9.81955L158.928 -38.5084C168.305 -48.0186 177.615 -57.6079 187.059 -67.0391C177.952 -57.2126 168.857 -47.5327 159.682 -37.7853L132.17 -8.6896L76.7969 49.253C58.2452 68.5107 39.6936 87.7684 21.0745 106.947L-6.92177 135.636C-16.2313 145.225 -25.6084 154.735 -34.9855 164.245Z" fill="url(#paint29_linear_326_10606)"/>
<path d="M615.591 269.145L534.226 256.462L452.873 243.633L290.189 217.682L127.472 191.212L46.2327 177.876L-34.9838 164.247L46.3927 176.783L127.746 189.612L290.497 215.642L453.067 242.1L534.374 255.515L615.591 269.145Z" fill="url(#paint30_linear_326_10606)"/>
<path d="M187.139 -67.1065L86.4525 -135.878L-13.9967 -204.852L-214.872 -343.093L-415.42 -481.751L-515.541 -551.142L-615.639 -620.825L-515.032 -551.986L-414.504 -483.08L-213.707 -344.771L-13.0809 -206.181L87.1081 -136.711L187.139 -67.1065Z" fill="url(#paint31_linear_326_10606)"/>
<path d="M187.139 -67.1068L282.959 -54.4644L378.915 -41.6639L570.645 -15.6349L762.262 10.9013L858.092 24.3555L953.911 37.9563L858.011 25.3815L762.135 12.5136L570.404 -13.5155L378.709 -39.9843L282.879 -53.4385L187.139 -67.1068Z" fill="url(#paint32_linear_326_10606)"/>
<path d="M615.59 269.145L561.726 227.513L507.952 185.667L400.709 101.853L293.727 17.5422L240.348 -24.6408L187.139 -67.1057L241.004 -25.4739L294.71 16.2926L402.02 100.186L508.936 184.418L562.382 226.68L615.59 269.145Z" fill="url(#paint33_linear_326_10606)"/>
<path d="M953.911 37.9563L857.944 25.3024L762.135 12.5136L570.404 -13.5155L378.709 -39.9843L282.879 -53.4385L187.139 -67.1068L282.959 -54.4644L378.915 -41.6639L570.645 -15.6349L762.262 10.9013L858.092 24.3555L953.911 37.9563Z" fill="url(#paint34_linear_326_10606)"/>
<path d="M187.139 -67.1062L239.314 -97.5756L291.703 -127.954L396.526 -188.34L501.607 -248.263L554.175 -278.111L606.946 -307.722L554.692 -277.186L502.382 -246.874L397.56 -186.489L292.479 -126.566L239.764 -96.7291L187.139 -67.1062Z" fill="url(#paint35_linear_326_10606)"/>
<path d="M606.946 -307.722L554.692 -277.186L502.382 -246.874L397.56 -186.489L292.479 -126.566L239.764 -96.7291L187.139 -67.1062L239.314 -97.5756L291.703 -127.954L396.526 -188.34L501.607 -248.263L554.175 -278.111L606.946 -307.722Z" fill="url(#paint36_linear_326_10606)"/>
<path d="M-34.9848 164.246L-6.189 236.714L22.4487 309.318L79.2728 454.636L135.713 600.146L163.821 672.929L191.702 745.767L162.907 673.299L134.269 600.696L77.3657 455.444L20.9253 309.935L-7.10304 237.085L-34.9848 164.246Z" fill="url(#paint37_linear_326_10606)"/>
<path d="M191.702 745.767L134.988 690.712L78.4438 635.375L-34.3405 524.578L-146.876 413.432L-202.946 357.69L-258.937 301.881L-202.302 357.003L-145.679 412.273L-32.8943 523.07L79.5622 634.284L135.711 689.958L191.702 745.767Z" fill="url(#paint38_linear_326_10606)"/>
<path d="M381.41 797.446L328.325 796.431L275.252 795.27L169.061 792.576L62.9167 789.296L9.74314 787.537L-43.2607 785.496L9.82407 786.511L62.8973 787.672L169.077 790.513L275.233 793.647L328.327 795.473L381.41 797.446Z" fill="url(#paint39_linear_326_10606)"/>
<path d="M191.702 745.767L244.257 752.565L296.721 759.577L401.706 773.827L506.645 788.662L559.142 796.193L611.549 803.938L558.993 797.14L506.45 790.196L401.465 775.946L296.526 761.11L244.029 753.579L191.702 745.767Z" fill="url(#paint40_linear_326_10606)"/>
<path d="M-43.2612 785.496C-33.5265 783.609 -23.7244 781.801 -14.0013 780.06L15.3146 774.85C34.9073 771.381 54.4886 768.058 74.0023 764.656C93.651 761.412 113.153 758.157 132.802 754.913L162.218 750.301C171.997 748.786 181.855 747.203 191.623 745.835C181.888 747.722 172.086 749.53 162.363 751.271L133.047 756.481C113.454 759.95 93.873 763.273 74.3592 766.675C54.7896 769.851 35.2084 773.174 15.5597 776.418L-13.8566 781.03C-23.6356 782.545 -33.4146 784.06 -43.2612 785.496Z" fill="url(#paint41_linear_326_10606)"/>
<path d="M191.702 745.767C181.967 747.654 172.165 749.462 162.442 751.203L133.126 756.413C113.534 759.882 93.9523 763.205 74.4386 766.607C54.7899 769.851 35.2877 773.106 15.639 776.35L-13.7772 780.962C-23.5563 782.477 -33.4144 784.06 -43.1819 785.428C-33.4472 783.541 -23.6451 781.733 -13.922 779.992L15.3939 774.782C34.9867 771.313 54.5679 767.99 74.0816 764.588C93.6512 761.412 113.232 758.089 132.881 754.845L162.297 750.233C171.997 748.785 181.856 747.203 191.702 745.767Z" fill="url(#paint42_linear_326_10606)"/>
<path d="M-258.937 301.881L-202.302 357.003L-145.679 412.273L-32.8943 523.07L79.5622 634.284L135.711 689.958L191.702 745.767L134.988 690.712L78.4438 635.375L-34.3405 524.578L-146.876 413.432L-202.946 357.69L-258.937 301.881Z" fill="url(#paint43_linear_326_10606)"/>
<path d="M-43.2604 785.495L-70.6587 725.23L-97.9104 664.976L-152.019 544.131L-205.743 423.096L-232.453 362.516L-258.937 301.88L-231.539 362.145L-204.22 422.478L-150.179 543.244L-96.4545 664.28L-69.7446 724.859L-43.2604 785.495Z" fill="url(#paint44_linear_326_10606)"/>
<path d="M-34.9838 164.247L46.3927 176.783L127.746 189.612L290.497 215.642L453.067 242.1L534.374 255.515L615.591 269.145L534.226 256.462L452.873 243.633L290.189 217.682L127.472 191.212L46.2327 177.876L-34.9838 164.247Z" fill="url(#paint45_linear_326_10606)"/>
<path d="M191.702 745.767L162.907 673.299L134.269 600.696L77.3657 455.444L20.9253 309.935L-7.10304 237.085L-34.9848 164.246L-6.189 236.714L22.4487 309.318L79.2728 454.636L135.713 600.146L163.821 672.929L191.702 745.767Z" fill="url(#paint46_linear_326_10606)"/>
<path d="M615.59 269.144L562.942 328.997L510.226 388.772L404.367 508.139L298.237 627.19L245.037 686.558L191.702 745.767L244.283 685.835L297.066 626.14L402.926 506.772L509.055 387.721L562.255 328.353L615.59 269.144Z" fill="url(#paint47_linear_326_10606)"/>
<path d="M906.066 944.106L816.695 919.805L727.268 895.279L548.583 845.945L370.08 796.183L280.846 771.082L191.702 745.767L281.073 770.068L370.5 794.594L549.185 843.928L727.688 893.69L816.923 918.791L906.066 944.106Z" fill="url(#paint48_linear_326_10606)"/>
<path d="M191.702 745.767L244.283 685.835L297.066 626.14L402.926 506.772L509.055 387.721L562.255 328.353L615.59 269.144L562.942 328.997L510.226 388.772L404.367 508.139L298.237 627.19L245.037 686.558L191.702 745.767Z" fill="url(#paint49_linear_326_10606)"/>
<path d="M611.549 803.938L558.993 797.14L506.45 790.196L401.465 775.946L296.526 761.11L244.029 753.579L191.702 745.767L244.257 752.565L296.721 759.577L401.706 773.827L506.645 788.662L559.142 796.193L611.549 803.938Z" fill="url(#paint50_linear_326_10606)"/>
<path d="M187.139 -67.1065L131.355 -83.4499L75.5934 -100.087L-35.771 -133.495L-146.943 -167.478L-202.511 -184.689L-258 -201.968L-202.216 -185.624L-146.455 -168.988L-35.1695 -135.512L76.0811 -101.597L131.582 -84.4643L187.139 -67.1065Z" fill="url(#paint51_linear_326_10606)"/>
<path d="M-830.383 164.14L-703.226 134.716L-576.159 105.505L-321.834 47.4678L-67.4769 -10.0507L59.8368 -38.6519L187.139 -67.1065L59.9816 -37.6819L-67.0853 -8.47128L-321.41 49.5659L-575.768 107.084L-703.014 135.765L-830.383 164.14Z" fill="url(#paint52_linear_326_10606)"/>
<path d="M0 99H430V931H0V99Z" fill="url(#paint53_linear_326_10606)" style="mix-blend-mode:multiply"/>
<rect x="430" y="99" width="430" height="99" transform="rotate(-180 430 99)" fill="url(#paint54_linear_326_10606)" style="mix-blend-mode:soft-light"/>
<rect x="-7" y="-8" width="446" height="947" fill="#15FFD5" style="mix-blend-mode:color"/>
<path fill-rule="evenodd" clip-rule="evenodd" d="M327.137 313.651H316.547C317.415 313.238 317.842 312.584 317.842 311.715C317.842 310.989 317.571 309.936 317.002 308.584L314.098 301.053H301.016L298.07 308.014C297.529 309.295 297.287 310.363 297.287 311.203C297.287 312.356 297.799 313.167 298.853 313.651H290.639C290.995 313.651 291.507 313.31 292.162 312.598C292.817 311.9 293.586 310.534 294.454 308.47L309.685 276L323.223 308.64C323.991 310.519 324.732 311.801 325.443 312.498C326.155 313.21 326.71 313.58 327.137 313.651ZM307.878 285.865L302.184 298.32H313.045L307.878 285.865ZM281.016 279.374C281.358 278.662 281.742 278.178 282.169 277.936C282.397 277.794 282.568 277.708 282.668 277.665H272.774C272.874 277.708 273.045 277.794 273.273 277.936C273.7 278.178 274.07 278.662 274.397 279.374C274.725 280.085 274.895 281.139 274.895 282.534V308.783C274.895 310.178 274.725 311.231 274.369 311.943C274.027 312.655 273.643 313.153 273.216 313.409C273.045 313.523 272.903 313.594 272.803 313.637H282.653C282.554 313.594 282.383 313.509 282.155 313.381C281.742 313.139 281.344 312.655 281.002 311.943C280.646 311.231 280.475 310.178 280.475 308.783V282.534C280.475 281.139 280.646 280.085 281.002 279.374H281.016ZM106.967 279.388C106.625 278.676 106.227 278.192 105.814 277.95H105.8C105.572 277.808 105.401 277.722 105.302 277.68H115.223C115.181 277.704 115.125 277.734 115.057 277.77L115.057 277.77L115.057 277.77L115.057 277.77L115.057 277.77C114.967 277.818 114.855 277.877 114.725 277.95C114.298 278.192 113.928 278.676 113.6 279.388C113.273 280.1 113.102 281.139 113.102 282.491V312.028C113.102 314.035 112.647 315.872 111.764 317.509C110.867 319.146 109.686 320.413 108.205 321.324C106.825 322.164 104.22 322.619 102.084 322.676C101.985 322.676 101.971 322.548 102.056 322.505C103.679 321.751 104.96 320.47 105.928 318.69C106.967 316.754 107.494 314.463 107.494 311.815V282.491C107.494 281.139 107.323 280.1 106.967 279.388ZM145.002 311.559C146.568 311.559 147.921 311.245 149.059 310.591L149.045 310.576C150.184 309.936 150.995 309.11 151.479 308.1L150.54 313.637H127.764C127.864 313.594 128.006 313.523 128.177 313.409C128.604 313.153 128.974 312.626 129.301 311.843C129.643 311.06 129.8 309.907 129.8 308.413V282.747C129.8 281.324 129.643 280.228 129.301 279.488C128.974 278.733 128.59 278.235 128.177 277.95C127.978 277.808 127.835 277.722 127.736 277.68H149.757V282.904C149.074 280.968 147.252 279.772 144.12 279.772H135.408V311.559H145.002ZM203.579 278.776C204.091 278.121 204.59 277.751 205.045 277.68H196.874L184.276 306.904L171.479 277.68H164.262C164.86 277.822 165.444 278.206 166.042 278.833C166.639 279.459 166.924 280.612 166.924 282.292V308.484C166.924 310.434 166.611 311.772 165.985 312.484C165.358 313.196 164.775 313.594 164.262 313.651H172.163C171.679 313.58 171.123 313.181 170.511 312.427C169.899 311.687 169.6 310.363 169.6 308.484V282.648L183.508 314.221L197.202 282.591V308.726C197.202 310.576 196.96 311.829 196.476 312.512C195.992 313.196 195.536 313.566 195.109 313.637H205.045C204.59 313.566 204.106 313.21 203.579 312.541C203.052 311.886 202.796 310.676 202.796 308.939V282.434C202.796 280.655 203.052 279.445 203.579 278.776ZM259.308 277.68C258.853 277.751 258.369 278.121 257.842 278.776C257.315 279.445 257.059 280.655 257.059 282.434V308.939C257.059 310.676 257.315 311.886 257.842 312.541C258.369 313.21 258.853 313.566 259.308 313.637H249.372C249.799 313.566 250.255 313.196 250.739 312.512C251.223 311.829 251.465 310.576 251.465 308.726V282.591L237.771 314.221L223.878 282.648V308.484C223.878 310.363 224.177 311.687 224.789 312.427C225.401 313.181 225.956 313.58 226.44 313.651H218.525C219.052 313.594 219.621 313.196 220.248 312.484C220.874 311.772 221.187 310.434 221.187 308.484V282.292C221.187 280.612 220.888 279.459 220.29 278.833C219.693 278.206 219.109 277.822 218.511 277.68H225.742L238.54 306.904L251.152 277.68H259.308ZM151.479 294.932V295.687C149.415 296.028 147.494 296.527 146.881 297.153C146.269 297.779 145.757 299.701 145.415 301.779H144.647C144.305 299.701 143.793 297.765 143.18 297.153C142.568 296.541 140.618 296.028 138.526 295.687V294.932C140.618 294.591 142.554 294.078 143.18 293.466C143.793 292.854 144.305 290.918 144.647 288.854H145.415C145.757 290.932 146.255 292.854 146.881 293.466C147.494 294.078 149.415 294.576 151.479 294.932ZM174.739 326.918C177.074 326.918 178.696 327.658 179.55 329.153H179.565C180.433 330.648 180.874 332.527 180.874 334.833C180.874 337.139 180.419 339.046 179.565 340.541C178.696 342.035 177.088 342.79 174.753 342.79H172.091V341.267H174.113C175.835 341.267 177.045 340.683 177.714 339.559C178.412 338.42 178.739 336.84 178.739 334.847C178.739 332.854 178.383 331.288 177.714 330.135C177.031 328.996 175.821 328.413 174.113 328.413H167.963V349.808H165.856V326.918H174.739ZM196.319 339.502L196.313 339.487H189.543V349.808H187.422V326.918H197.444C199.493 326.918 200.874 327.53 201.6 328.754V328.74C202.326 329.964 202.682 331.502 202.682 333.253C202.682 335.003 202.312 336.47 201.572 337.68C200.988 338.648 199.963 339.231 198.511 339.416L198.497 339.43L202.753 349.822H200.461L196.319 339.502ZM199.75 336.769C199.237 337.665 198.255 338.107 196.817 338.107H189.529V328.427H196.817C198.226 328.427 199.209 328.882 199.75 329.765C200.276 330.662 200.547 331.829 200.547 333.281C200.547 334.733 200.276 335.872 199.75 336.769ZM210.383 349.808V326.918H212.476V349.808H210.383ZM236.433 329.438C234.867 327.63 232.604 326.719 229.629 326.719C226.653 326.719 224.39 327.63 222.824 329.423C221.273 331.231 220.49 334.206 220.49 338.363C220.49 342.519 221.273 345.466 222.838 347.26C224.404 349.053 226.668 349.95 229.629 349.95C232.589 349.95 234.867 349.053 236.433 347.26C237.999 345.466 238.767 342.491 238.767 338.363C238.767 334.235 237.999 331.245 236.433 329.438ZM234.696 346.349C233.387 347.744 231.707 348.455 229.643 348.455C227.579 348.455 225.899 347.758 224.589 346.349C223.28 344.954 222.611 342.277 222.611 338.363C222.611 334.448 223.28 331.758 224.589 330.363C225.899 328.968 227.579 328.256 229.643 328.256C231.707 328.256 233.387 328.954 234.696 330.363C236.006 331.758 236.661 334.434 236.661 338.363C236.661 342.292 236.006 344.954 234.696 346.349ZM254.164 339.487L254.169 339.502L258.298 349.822H260.604L256.333 339.43L256.347 339.416C257.799 339.231 258.824 338.648 259.422 337.68C260.162 336.47 260.532 335.003 260.532 333.253C260.532 331.502 260.177 329.964 259.451 328.74V328.754C258.725 327.53 257.33 326.918 255.294 326.918H245.273V349.808H247.394V339.487H254.164ZM254.668 338.107C256.105 338.107 257.073 337.665 257.6 336.769C258.127 335.872 258.383 334.733 258.383 333.281C258.383 331.829 258.127 330.662 257.6 329.765C257.059 328.882 256.077 328.427 254.668 328.427H247.379V338.107H254.668ZM268.219 326.918V349.808H270.312V326.918H268.219ZM277.899 328.413V326.918H277.913H294.269V328.413H287.152V349.808H285.045V328.413H277.899ZM315.251 326.918L308.717 338.69H308.689L302.155 326.918H299.835L307.65 340.512V349.808H309.757V340.527L317.571 326.918H315.265H315.251ZM328.589 327.43V326.904C327.166 326.662 325.842 326.32 325.415 325.893C324.988 325.466 324.646 324.142 324.404 322.705H323.877C323.635 324.142 323.294 325.466 322.867 325.893C322.44 326.32 321.102 326.662 319.65 326.904V327.43C321.102 327.658 322.44 328.014 322.867 328.441C323.294 328.868 323.635 330.206 323.877 331.644H324.404C324.646 330.206 325.002 328.868 325.415 328.441C325.828 328.014 327.151 327.672 328.589 327.43Z" fill="url(#paint55_linear_326_10606)"/>
</g>
<defs>
<linearGradient id="paint0_linear_326_10606" x1="161.338" y1="1134.36" x2="-138.026" y2="783.748" gradientUnits="userSpaceOnUse">
<stop stop-color="#131F26"/>
<stop offset="1" stop-color="#060C0B"/>
</linearGradient>
<linearGradient id="paint1_linear_326_10606" x1="-15.1454" y1="761.502" x2="-366.762" y2="349.698" gradientUnits="userSpaceOnUse">
<stop stop-color="#131F26"/>
<stop offset="1" stop-color="#060C0B"/>
</linearGradient>
<linearGradient id="paint2_linear_326_10606" x1="161.338" y1="1134.36" x2="-138.026" y2="783.748" gradientUnits="userSpaceOnUse">
<stop stop-color="#060C0B"/>
<stop offset="1" stop-color="#131F26"/>
</linearGradient>
<linearGradient id="paint3_linear_326_10606" x1="426.721" y1="961.742" x2="141.526" y2="627.729" gradientUnits="userSpaceOnUse">
<stop stop-color="#131F26"/>
<stop offset="1" stop-color="#060C0B"/>
</linearGradient>
<linearGradient id="paint4_linear_326_10606" x1="-38.3823" y1="125.436" x2="-650.281" y2="-591.203" gradientUnits="userSpaceOnUse">
<stop stop-color="#060C0B"/>
<stop offset="1" stop-color="#131F26"/>
</linearGradient>
<linearGradient id="paint5_linear_326_10606" x1="39.9788" y1="-239.387" x2="-662.63" y2="360.532" gradientUnits="userSpaceOnUse">
<stop stop-color="#060C0B"/>
<stop offset="1" stop-color="#131F26"/>
</linearGradient>
<linearGradient id="paint6_linear_326_10606" x1="453.364" y1="407.624" x2="106.67" y2="1.58555" gradientUnits="userSpaceOnUse">
<stop stop-color="#131F26"/>
<stop offset="1" stop-color="#060C0B"/>
</linearGradient>
<linearGradient id="paint7_linear_326_10606" x1="136.031" y1="-23.4859" x2="-475.868" y2="-740.125" gradientUnits="userSpaceOnUse">
<stop stop-color="#131F26"/>
<stop offset="1" stop-color="#060C0B"/>
</linearGradient>
<linearGradient id="paint8_linear_326_10606" x1="758.103" y1="205.151" x2="382.901" y2="-234.276" gradientUnits="userSpaceOnUse">
<stop stop-color="#00FFD1"/>
<stop offset="1" stop-color="#131F26"/>
</linearGradient>
<linearGradient id="paint9_linear_326_10606" x1="758.103" y1="205.151" x2="382.901" y2="-234.276" gradientUnits="userSpaceOnUse">
<stop stop-color="#131F26"/>
<stop offset="1" stop-color="#060C0B"/>
</linearGradient>
<linearGradient id="paint10_linear_326_10606" x1="426.107" y1="-153.329" x2="72.0203" y2="-568.026" gradientUnits="userSpaceOnUse">
<stop stop-color="#131F26"/>
<stop offset="1" stop-color="#060C0B"/>
</linearGradient>
<linearGradient id="paint11_linear_326_10606" x1="249.034" y1="696.827" x2="-160.176" y2="217.57" gradientUnits="userSpaceOnUse">
<stop stop-color="#131F26"/>
<stop offset="1" stop-color="#060C0B"/>
</linearGradient>
<linearGradient id="paint12_linear_326_10606" x1="426.721" y1="961.742" x2="141.526" y2="627.729" gradientUnits="userSpaceOnUse">
<stop stop-color="#060C0B"/>
<stop offset="1" stop-color="#131F26"/>
</linearGradient>
<linearGradient id="paint13_linear_326_10606" x1="113.928" y1="812.187" x2="-295.283" y2="332.93" gradientUnits="userSpaceOnUse">
<stop stop-color="#060C0B"/>
<stop offset="1" stop-color="#131F26"/>
</linearGradient>
<linearGradient id="paint14_linear_326_10606" x1="431.973" y1="540.626" x2="49.1956" y2="92.3268" gradientUnits="userSpaceOnUse">
<stop stop-color="#060C0B"/>
<stop offset="1" stop-color="#131F26"/>
</linearGradient>
<linearGradient id="paint15_linear_326_10606" x1="831.121" y1="1008.1" x2="375.312" y2="474.266" gradientUnits="userSpaceOnUse">
<stop stop-color="#060C0B"/>
<stop offset="1" stop-color="#131F26"/>
</linearGradient>
<linearGradient id="paint16_linear_326_10606" x1="748.452" y1="1078.68" x2="349.304" y2="611.212" gradientUnits="userSpaceOnUse">
<stop stop-color="#131F26"/>
<stop offset="1" stop-color="#060C0B"/>
</linearGradient>
<linearGradient id="paint17_linear_326_10606" x1="-164.209" y1="232.872" x2="-479.019" y2="-135.825" gradientUnits="userSpaceOnUse">
<stop stop-color="#131F26"/>
<stop offset="1" stop-color="#060C0B"/>
</linearGradient>
<linearGradient id="paint18_linear_326_10606" x1="161.774" y1="1134.87" x2="-138.462" y2="783.237" gradientUnits="userSpaceOnUse">
<stop stop-color="#060C0B"/>
<stop offset="0.4" stop-color="#F2C84B"/>
<stop offset="0.5" stop-color="#F2D785"/>
<stop offset="0.6" stop-color="#D9A036"/>
<stop offset="1" stop-color="#060C0B"/>
</linearGradient>
<linearGradient id="paint19_linear_326_10606" x1="4.66904" y1="1226.1" x2="-273.945" y2="899.797" gradientUnits="userSpaceOnUse">
<stop stop-color="#060C0B"/>
<stop offset="0.4" stop-color="#F2C84B"/>
<stop offset="0.5" stop-color="#F2D785"/>
<stop offset="0.6" stop-color="#D9A036"/>
<stop offset="1" stop-color="#060C0B"/>
</linearGradient>
<linearGradient id="paint20_linear_326_10606" x1="13.7828" y1="736.802" x2="-316.358" y2="350.15" gradientUnits="userSpaceOnUse">
<stop stop-color="#060C0B"/>
<stop offset="0.4" stop-color="#F2C84B"/>
<stop offset="0.5" stop-color="#F2D785"/>
<stop offset="0.6" stop-color="#D9A036"/>
<stop offset="1" stop-color="#060C0B"/>
</linearGradient>
<linearGradient id="paint21_linear_326_10606" x1="161.774" y1="1134.87" x2="-138.462" y2="783.237" gradientUnits="userSpaceOnUse">
<stop stop-color="#060C0B"/>
<stop offset="0.4" stop-color="#F2C84B"/>
<stop offset="0.5" stop-color="#F2D785"/>
<stop offset="0.6" stop-color="#D9A036"/>
<stop offset="1" stop-color="#060C0B"/>
</linearGradient>
<linearGradient id="paint22_linear_326_10606" x1="262.366" y1="1048.09" x2="3.42852" y2="744.832" gradientUnits="userSpaceOnUse">
<stop stop-color="#060C0B"/>
<stop offset="0.4" stop-color="#F2C84B"/>
<stop offset="0.5" stop-color="#F2D785"/>
<stop offset="0.6" stop-color="#D9A036"/>
<stop offset="1" stop-color="#060C0B"/>
</linearGradient>
<linearGradient id="paint23_linear_326_10606" x1="262.366" y1="1048.09" x2="3.42852" y2="744.832" gradientUnits="userSpaceOnUse">
<stop stop-color="#060C0B"/>
<stop offset="0.4" stop-color="#F2C84B"/>
<stop offset="0.5" stop-color="#F2D785"/>
<stop offset="0.6" stop-color="#D9A036"/>
<stop offset="1" stop-color="#060C0B"/>
</linearGradient>
<linearGradient id="paint24_linear_326_10606" x1="474.494" y1="922.309" x2="446.494" y2="889.516" gradientUnits="userSpaceOnUse">
<stop stop-color="#060C0B"/>
<stop offset="0.4" stop-color="#F2C84B"/>
<stop offset="0.5" stop-color="#F2D785"/>
<stop offset="0.6" stop-color="#D9A036"/>
<stop offset="1" stop-color="#060C0B"/>
</linearGradient>
<linearGradient id="paint25_linear_326_10606" x1="91.6903" y1="14.3739" x2="-520.208" y2="-702.265" gradientUnits="userSpaceOnUse">
<stop stop-color="#060C0B"/>
<stop offset="0.4" stop-color="#F2C84B"/>
<stop offset="0.5" stop-color="#F2D785"/>
<stop offset="0.6" stop-color="#D9A036"/>
<stop offset="1" stop-color="#060C0B"/>
</linearGradient>
<linearGradient id="paint26_linear_326_10606" x1="87.0084" y1="61.4003" x2="65.0879" y2="35.7276" gradientUnits="userSpaceOnUse">
<stop stop-color="#060C0B"/>
<stop offset="0.4" stop-color="#F2C84B"/>
<stop offset="0.5" stop-color="#F2D785"/>
<stop offset="0.6" stop-color="#D9A036"/>
<stop offset="1" stop-color="#060C0B"/>
</linearGradient>
<linearGradient id="paint27_linear_326_10606" x1="-163.611" y1="233.572" x2="-479.616" y2="-136.525" gradientUnits="userSpaceOnUse">
<stop stop-color="#060C0B"/>
<stop offset="0.4" stop-color="#F2C84B"/>
<stop offset="0.5" stop-color="#F2D785"/>
<stop offset="0.6" stop-color="#D9A036"/>
<stop offset="1" stop-color="#060C0B"/>
</linearGradient>
<linearGradient id="paint28_linear_326_10606" x1="574.699" y1="304.022" x2="228.006" y2="-102.017" gradientUnits="userSpaceOnUse">
<stop stop-color="#060C0B"/>
<stop offset="0.4" stop-color="#F2C84B"/>
<stop offset="0.5" stop-color="#F2D785"/>
<stop offset="0.6" stop-color="#D9A036"/>
<stop offset="1" stop-color="#060C0B"/>
</linearGradient>
<linearGradient id="paint29_linear_326_10606" x1="87.0077" y1="61.4006" x2="65.0872" y2="35.7279" gradientUnits="userSpaceOnUse">
<stop stop-color="#060C0B"/>
<stop offset="0.4" stop-color="#F2C84B"/>
<stop offset="0.5" stop-color="#F2D785"/>
<stop offset="0.6" stop-color="#D9A036"/>
<stop offset="1" stop-color="#060C0B"/>
</linearGradient>
<linearGradient id="paint30_linear_326_10606" x1="453.801" y1="408.136" x2="126.81" y2="25.1729" gradientUnits="userSpaceOnUse">
<stop stop-color="#060C0B"/>
<stop offset="0.4" stop-color="#F2C84B"/>
<stop offset="0.5" stop-color="#F2D785"/>
<stop offset="0.6" stop-color="#D9A036"/>
<stop offset="1" stop-color="#060C0B"/>
</linearGradient>
<linearGradient id="paint31_linear_326_10606" x1="91.6903" y1="14.3739" x2="-520.208" y2="-702.265" gradientUnits="userSpaceOnUse">
<stop stop-color="#060C0B"/>
<stop offset="0.4" stop-color="#F2C84B"/>
<stop offset="0.5" stop-color="#F2D785"/>
<stop offset="0.6" stop-color="#D9A036"/>
<stop offset="1" stop-color="#060C0B"/>
</linearGradient>
<linearGradient id="paint32_linear_326_10606" x1="758.552" y1="205.677" x2="382.452" y2="-234.802" gradientUnits="userSpaceOnUse">
<stop stop-color="#060C0B"/>
<stop offset="0.4" stop-color="#F2C84B"/>
<stop offset="0.5" stop-color="#F2D785"/>
<stop offset="0.6" stop-color="#D9A036"/>
<stop offset="1" stop-color="#060C0B"/>
</linearGradient>
<linearGradient id="paint33_linear_326_10606" x1="574.699" y1="304.022" x2="228.006" y2="-102.017" gradientUnits="userSpaceOnUse">
<stop stop-color="#060C0B"/>
<stop offset="0.4" stop-color="#F2C84B"/>
<stop offset="0.5" stop-color="#F2D785"/>
<stop offset="0.6" stop-color="#D9A036"/>
<stop offset="1" stop-color="#060C0B"/>
</linearGradient>
<linearGradient id="paint34_linear_326_10606" x1="758.552" y1="205.677" x2="382.452" y2="-234.802" gradientUnits="userSpaceOnUse">
<stop stop-color="#060C0B"/>
<stop offset="0.4" stop-color="#F2C84B"/>
<stop offset="0.5" stop-color="#F2D785"/>
<stop offset="0.6" stop-color="#D9A036"/>
<stop offset="1" stop-color="#060C0B"/>
</linearGradient>
<linearGradient id="paint35_linear_326_10606" x1="426.771" y1="-152.552" x2="367.253" y2="-222.257" gradientUnits="userSpaceOnUse">
<stop stop-color="#060C0B"/>
<stop offset="0.4" stop-color="#F2C84B"/>
<stop offset="0.5" stop-color="#F2D785"/>
<stop offset="0.6" stop-color="#D9A036"/>
<stop offset="1" stop-color="#060C0B"/>
</linearGradient>
<linearGradient id="paint36_linear_326_10606" x1="426.771" y1="-152.552" x2="367.253" y2="-222.257" gradientUnits="userSpaceOnUse">
<stop stop-color="#060C0B"/>
<stop offset="0.4" stop-color="#F2C84B"/>
<stop offset="0.5" stop-color="#F2D785"/>
<stop offset="0.6" stop-color="#D9A036"/>
<stop offset="1" stop-color="#060C0B"/>
</linearGradient>
<linearGradient id="paint37_linear_326_10606" x1="269.728" y1="679.158" x2="-113.494" y2="230.339" gradientUnits="userSpaceOnUse">
<stop stop-color="#060C0B"/>
<stop offset="0.4" stop-color="#F2C84B"/>
<stop offset="0.5" stop-color="#F2D785"/>
<stop offset="0.6" stop-color="#D9A036"/>
<stop offset="1" stop-color="#060C0B"/>
</linearGradient>
<linearGradient id="paint38_linear_326_10606" x1="170.984" y1="763.47" x2="-238.227" y2="284.213" gradientUnits="userSpaceOnUse">
<stop stop-color="#060C0B"/>
<stop offset="0.4" stop-color="#F2C84B"/>
<stop offset="0.5" stop-color="#F2D785"/>
<stop offset="0.6" stop-color="#D9A036"/>
<stop offset="1" stop-color="#060C0B"/>
</linearGradient>
<linearGradient id="paint39_linear_326_10606" x1="262.052" y1="900.399" x2="76.0816" y2="682.595" gradientUnits="userSpaceOnUse">
<stop stop-color="#060C0B"/>
<stop offset="0.4" stop-color="#F2C84B"/>
<stop offset="0.5" stop-color="#F2D785"/>
<stop offset="0.6" stop-color="#D9A036"/>
<stop offset="1" stop-color="#060C0B"/>
</linearGradient>
<linearGradient id="paint40_linear_326_10606" x1="504.918" y1="895.881" x2="298.279" y2="653.871" gradientUnits="userSpaceOnUse">
<stop stop-color="#060C0B"/>
<stop offset="0.4" stop-color="#F2C84B"/>
<stop offset="0.5" stop-color="#F2D785"/>
<stop offset="0.6" stop-color="#D9A036"/>
<stop offset="1" stop-color="#060C0B"/>
</linearGradient>
<linearGradient id="paint41_linear_326_10606" x1="114.507" y1="812.865" x2="33.8959" y2="718.455" gradientUnits="userSpaceOnUse">
<stop stop-color="#060C0B"/>
<stop offset="0.4" stop-color="#F2C84B"/>
<stop offset="0.5" stop-color="#F2D785"/>
<stop offset="0.6" stop-color="#D9A036"/>
<stop offset="1" stop-color="#060C0B"/>
</linearGradient>
<linearGradient id="paint42_linear_326_10606" x1="114.507" y1="812.865" x2="33.8962" y2="718.455" gradientUnits="userSpaceOnUse">
<stop stop-color="#060C0B"/>
<stop offset="0.4" stop-color="#F2C84B"/>
<stop offset="0.5" stop-color="#F2D785"/>
<stop offset="0.6" stop-color="#D9A036"/>
<stop offset="1" stop-color="#060C0B"/>
</linearGradient>
<linearGradient id="paint43_linear_326_10606" x1="170.984" y1="763.47" x2="-238.227" y2="284.213" gradientUnits="userSpaceOnUse">
<stop stop-color="#060C0B"/>
<stop offset="0.4" stop-color="#F2C84B"/>
<stop offset="0.5" stop-color="#F2D785"/>
<stop offset="0.6" stop-color="#D9A036"/>
<stop offset="1" stop-color="#060C0B"/>
</linearGradient>
<linearGradient id="paint44_linear_326_10606" x1="13.7828" y1="736.802" x2="-316.358" y2="350.15" gradientUnits="userSpaceOnUse">
<stop stop-color="#060C0B"/>
<stop offset="0.4" stop-color="#F2C84B"/>
<stop offset="0.5" stop-color="#F2D785"/>
<stop offset="0.6" stop-color="#D9A036"/>
<stop offset="1" stop-color="#060C0B"/>
</linearGradient>
<linearGradient id="paint45_linear_326_10606" x1="453.801" y1="408.136" x2="126.81" y2="25.1729" gradientUnits="userSpaceOnUse">
<stop stop-color="#060C0B"/>
<stop offset="0.4" stop-color="#F2C84B"/>
<stop offset="0.5" stop-color="#F2D785"/>
<stop offset="0.6" stop-color="#D9A036"/>
<stop offset="1" stop-color="#060C0B"/>
</linearGradient>
<linearGradient id="paint46_linear_326_10606" x1="269.728" y1="679.158" x2="-113.494" y2="230.339" gradientUnits="userSpaceOnUse">
<stop stop-color="#060C0B"/>
<stop offset="0.4" stop-color="#F2C84B"/>
<stop offset="0.5" stop-color="#F2D785"/>
<stop offset="0.6" stop-color="#D9A036"/>
<stop offset="1" stop-color="#060C0B"/>
</linearGradient>
<linearGradient id="paint47_linear_326_10606" x1="432.642" y1="541.409" x2="374.644" y2="473.483" gradientUnits="userSpaceOnUse">
<stop stop-color="#060C0B"/>
<stop offset="0.4" stop-color="#F2C84B"/>
<stop offset="0.5" stop-color="#F2D785"/>
<stop offset="0.6" stop-color="#D9A036"/>
<stop offset="1" stop-color="#060C0B"/>
</linearGradient>
<linearGradient id="paint48_linear_326_10606" x1="748.452" y1="1078.68" x2="348.549" y2="610.328" gradientUnits="userSpaceOnUse">
<stop stop-color="#060C0B"/>
<stop offset="0.4" stop-color="#F2C84B"/>
<stop offset="0.5" stop-color="#F2D785"/>
<stop offset="0.6" stop-color="#D9A036"/>
<stop offset="1" stop-color="#060C0B"/>
</linearGradient>
<linearGradient id="paint49_linear_326_10606" x1="432.642" y1="541.409" x2="374.644" y2="473.483" gradientUnits="userSpaceOnUse">
<stop stop-color="#060C0B"/>
<stop offset="0.4" stop-color="#F2C84B"/>
<stop offset="0.5" stop-color="#F2D785"/>
<stop offset="0.6" stop-color="#D9A036"/>
<stop offset="1" stop-color="#060C0B"/>
</linearGradient>
<linearGradient id="paint50_linear_326_10606" x1="504.918" y1="895.881" x2="298.279" y2="653.871" gradientUnits="userSpaceOnUse">
<stop stop-color="#060C0B"/>
<stop offset="0.4" stop-color="#F2C84B"/>
<stop offset="0.5" stop-color="#F2D785"/>
<stop offset="0.6" stop-color="#D9A036"/>
<stop offset="1" stop-color="#060C0B"/>
</linearGradient>
<linearGradient id="paint51_linear_326_10606" x1="92.0544" y1="14.8003" x2="-162.96" y2="-283.866" gradientUnits="userSpaceOnUse">
<stop stop-color="#060C0B"/>
<stop offset="0.4" stop-color="#F2C84B"/>
<stop offset="0.5" stop-color="#F2D785"/>
<stop offset="0.6" stop-color="#D9A036"/>
<stop offset="1" stop-color="#060C0B"/>
</linearGradient>
<linearGradient id="paint52_linear_326_10606" x1="-163.611" y1="233.572" x2="-479.616" y2="-136.525" gradientUnits="userSpaceOnUse">
<stop stop-color="#060C0B"/>
<stop offset="0.4" stop-color="#F2C84B"/>
<stop offset="0.5" stop-color="#F2D785"/>
<stop offset="0.6" stop-color="#D9A036"/>
<stop offset="1" stop-color="#060C0B"/>
</linearGradient>
<linearGradient id="paint53_linear_326_10606" x1="215" y1="268.14" x2="215" y2="931" gradientUnits="userSpaceOnUse">
<stop stop-color="white" stop-opacity="0"/>
<stop offset="0.57" stop-color="#004230"/>
</linearGradient>
<linearGradient id="paint54_linear_326_10606" x1="645" y1="99" x2="645" y2="198" gradientUnits="userSpaceOnUse">
<stop stop-color="#05AA7C" stop-opacity="0"/>
<stop offset="1" stop-color="#44C4A1"/>
</linearGradient>
<linearGradient id="paint55_linear_326_10606" x1="102" y1="219.975" x2="328.589" y2="219.975" gradientUnits="userSpaceOnUse">
<stop stop-color="#00FFD2"/>
<stop offset="1" stop-color="#007C83"/>
</linearGradient>
<clipPath id="clip0_326_10606">
<rect width="430" height="931.093" fill="white"/>
</clipPath>
</defs>
</svg>
