<svg width="20" height="20" viewBox="0 0 48 47" fill="none" xmlns="http://www.w3.org/2000/svg">
<path d="M23.5237 1.46785C20.2828 1.46791 17.2005 2.16559 14.4272 3.42427C14.0475 3.59663 13.8873 4.04991 14.0743 4.42251L15.3867 7.05164C15.563 7.40475 15.9867 7.55548 16.3463 7.393C18.5385 6.41424 20.9648 5.87552 23.5237 5.87552C33.2664 5.87552 41.1472 13.7564 41.1472 23.4991C41.1472 27.1641 40.0192 30.551 38.1065 33.3716L35.7915 31.0551C35.6333 30.8966 35.4115 30.8189 35.1891 30.8441C34.818 30.8872 34.5383 31.2021 34.5393 31.5757V39.6537C34.5378 40.0593 34.8652 40.3894 35.2708 40.391H43.3475C44.0073 40.3966 44.3385 39.5959 43.8682 39.1331L41.2649 36.5298C43.9506 32.8787 45.5549 28.3757 45.5549 23.499C45.5549 11.3402 35.6825 1.46774 23.5237 1.46777V1.46785ZM3.69268 6.60703C3.03962 6.60728 2.71169 7.39597 3.17203 7.85921L5.77676 10.464C3.09055 14.1155 1.49243 18.6215 1.49243 23.4991C1.49243 35.6579 11.3649 45.5303 23.5237 45.5303C26.7645 45.5303 29.8469 44.8269 32.6202 43.5682C32.9992 43.3953 33.1588 42.9421 32.9716 42.5698L31.6549 39.9408C31.4789 39.5909 31.0592 39.4406 30.701 39.5994C28.5089 40.5782 26.0826 41.1227 23.5237 41.1227C13.781 41.1227 5.90011 33.2418 5.90011 23.4991C5.90011 19.8353 7.02156 16.4445 8.93228 13.6238L11.2559 15.9416C11.7191 16.402 12.5078 16.074 12.5081 15.4209V7.3443C12.5095 6.93648 12.1786 6.60548 11.7708 6.60703H3.69268ZM23.5222 11.7476C17.0416 11.7476 11.7751 17.0199 11.7751 23.5005C11.7751 29.9812 17.0416 35.2477 23.5222 35.2477C30.0029 35.2477 35.2751 29.9812 35.2751 23.5005C35.2751 17.0199 30.0029 11.7476 23.5222 11.7476ZM23.5193 14.6809C23.8866 14.6809 24.2537 14.9253 24.2537 15.4152V16.9714C25.9252 17.3128 27.1926 18.7985 27.1926 20.5673C27.2148 21.5684 25.7017 21.5684 25.7239 20.5673C25.7239 19.3419 24.7476 18.367 23.5222 18.367C22.2967 18.367 21.3219 19.3419 21.3219 20.5673C21.3219 21.7928 22.2967 22.769 23.5222 22.769C25.5414 22.769 27.1926 24.4245 27.1926 26.4438C27.1926 28.2126 25.9252 29.6997 24.2537 30.0411V31.5829C24.2537 32.5623 22.7849 32.5623 22.7849 31.5829V30.0396C21.1162 29.696 19.8532 28.2106 19.8532 26.4438C19.8744 25.4861 21.2997 25.4861 21.3219 26.4438C21.3219 27.6692 22.2967 28.6455 23.5222 28.6455C24.7476 28.6455 25.7239 27.6692 25.7239 26.4438C25.7239 25.2183 24.7476 24.2377 23.5222 24.2377C21.5029 24.2377 19.8532 22.5865 19.8532 20.5673C19.8532 18.8005 21.1162 17.3165 22.7849 16.9729V15.4152C22.7849 14.9255 23.152 14.6809 23.5193 14.6809Z" fill="#1E1E1E"/>
</svg>
