<svg width="24" height="24" viewBox="0 0 65 47" fill="none" xmlns="http://www.w3.org/2000/svg">
<path d="M0.0236816 46.9999V35.4444C0.0236816 33.8073 0.593379 32.4351 1.73277 31.3277C2.87217 30.2203 4.24186 29.6666 5.84186 29.6666H15.3691C16.3388 29.6666 17.26 29.9073 18.1328 30.3888C19.0055 30.8703 19.7085 31.5203 20.2419 32.3388C21.6479 34.2166 23.3813 35.6851 25.4419 36.7444C27.5025 37.8036 29.6964 38.3333 32.0237 38.3333C34.3994 38.3333 36.6176 37.8036 38.6782 36.7444C40.7388 35.6851 42.4479 34.2166 43.8055 32.3388C44.4358 31.5203 45.1752 30.8703 46.0237 30.3888C46.8722 29.9073 47.757 29.6666 48.6782 29.6666H58.2055C59.854 29.6666 61.2358 30.2203 62.351 31.3277C63.4661 32.4351 64.0237 33.8073 64.0237 35.4444V46.9999H43.66V40.4277C41.9631 41.6314 40.1328 42.5462 38.1691 43.1721C36.2055 43.7981 34.157 44.111 32.0237 44.111C29.9388 44.111 27.9025 43.786 25.9146 43.136C23.9267 42.486 22.0843 41.5592 20.3873 40.3555V46.9999H0.0236816ZM8.75095 26.7777C6.32671 26.7777 4.26611 25.9351 2.56914 24.2499C0.872166 22.5647 0.0236816 20.5184 0.0236816 18.111C0.0236816 15.6555 0.872166 13.5971 2.56914 11.936C4.26611 10.2749 6.32671 9.44437 8.75095 9.44437C11.2237 9.44437 13.2964 10.2749 14.9691 11.936C16.6419 13.5971 17.4782 15.6555 17.4782 18.111C17.4782 20.5184 16.6419 22.5647 14.9691 24.2499C13.2964 25.9351 11.2237 26.7777 8.75095 26.7777ZM55.2964 26.7777C52.8722 26.7777 50.8116 25.9351 49.1146 24.2499C47.4176 22.5647 46.5691 20.5184 46.5691 18.111C46.5691 15.6555 47.4176 13.5971 49.1146 11.936C50.8116 10.2749 52.8722 9.44437 55.2964 9.44437C57.7691 9.44437 59.8419 10.2749 61.5146 11.936C63.1873 13.5971 64.0237 15.6555 64.0237 18.111C64.0237 20.5184 63.1873 22.5647 61.5146 24.2499C59.8419 25.9351 57.7691 26.7777 55.2964 26.7777Z" fill="black"/>
<path d="M24.5952 6.15385L30.6788 12.5481L27.7493 6.15385H24.5952ZM32.5243 13.5769L35.9323 6.15385H29.1164L32.5243 13.5769ZM27.7785 4.92308L29.7706 1.23077H27.2122L24.3999 4.92308H27.7785ZM34.3699 12.5481L40.4535 6.15385H37.2994L34.3699 12.5481ZM29.1945 4.92308H35.8542L33.8621 1.23077H31.1865L29.1945 4.92308ZM37.2701 4.92308H40.6488L37.8365 1.23077H35.2781L37.2701 4.92308ZM38.647 0.25L42.3967 5.17308C42.4879 5.28846 42.5302 5.42147 42.5237 5.57211C42.5172 5.72276 42.4618 5.85256 42.3577 5.96154L32.9833 15.8077C32.8661 15.9359 32.7131 16 32.5243 16C32.3355 16 32.1826 15.9359 32.0654 15.8077L22.691 5.96154C22.5868 5.85256 22.5315 5.72276 22.525 5.57211C22.5185 5.42147 22.5608 5.28846 22.6519 5.17308L26.4017 0.25C26.5189 0.0833333 26.6849 0 26.8997 0H38.149C38.3638 0 38.5298 0.0833333 38.647 0.25Z" fill="black"/>
</svg>
