<svg width="24" height="24" viewBox="0 0 40 54" fill="none" xmlns="http://www.w3.org/2000/svg">
<path fill-rule="evenodd" clip-rule="evenodd" d="M0.0236816 25.7727C0.0236816 18.3109 6.01993 12.2727 13.4299 12.2727C13.5018 12.2727 13.5735 12.2733 13.645 12.2744C16.3826 12.3177 18.9197 13.1852 21.0226 14.6416L30.6874 4.90909H24.3987V0H39.0237V14.7273H34.1487V8.39455L24.4739 18.1125C25.9174 20.2202 26.781 22.7624 26.8336 25.5065C26.8353 25.595 26.8362 25.6838 26.8362 25.7727C26.8362 26.2083 26.8158 26.6389 26.7758 27.0638C26.2083 33.1009 21.701 37.9738 15.8674 39.0506V44.1818H20.7424V49.0909H15.8674V54H10.9924V49.0909H6.11743V44.1818H10.9924V39.0506C4.9389 37.9332 0.313588 32.7281 0.0368022 26.3762C0.029342 26.205 0.0250408 26.0329 0.0239559 25.8601C0.0237731 25.831 0.0236816 25.8019 0.0236816 25.7727ZM21.9612 25.7727C21.9612 21.0355 18.1343 17.1818 13.4299 17.1818C8.72556 17.1818 4.89868 21.0355 4.89868 25.7727C4.89868 30.51 8.72556 34.3636 13.4299 34.3636C18.1343 34.3636 21.9612 30.51 21.9612 25.7727Z" fill="black"/>
</svg>
