<svg width="24" height="24" viewBox="0 0 36 47" fill="none" xmlns="http://www.w3.org/2000/svg">
<path fill-rule="evenodd" clip-rule="evenodd" d="M6.47819 2.38419e-07L30.4318 0C31.8829 0 33.2009 0.663427 34.1201 1.71724C35.0308 2.76127 35.5 4.11892 35.5 5.48077V31.3269C35.5 32.6888 35.0308 34.0464 34.1201 35.0905C33.7117 35.5587 33.2245 35.9499 32.6818 36.2401V42H33.25C34.4926 42 35.5 43.0074 35.5 44.25C35.5 45.4926 34.4926 46.5 33.25 46.5H6.47727C4.65247 46.5 2.97606 45.6664 1.79257 44.3096C0.617608 42.9627 0 41.1941 0 39.4038C0 39.3759 0.000150442 39.348 0.000450611 39.3201C0.000150681 39.305 0 39.2898 0 39.2746V6.96692C0 6.94947 0.000202894 6.93203 0.000608921 6.91458C0.0415528 5.15502 0.678922 3.43042 1.85172 2.12177C3.03268 0.804017 4.68558 -0.000456095 6.47819 2.38419e-07ZM4.5 32.6448C5.1259 32.4256 5.79109 32.3077 6.47727 32.3077H30.4318C30.4756 32.3077 30.5912 32.2904 30.729 32.1324C30.8753 31.9646 31 31.6788 31 31.3269V5.48077C31 5.12891 30.8753 4.84304 30.729 4.67531C30.5912 4.51734 30.4756 4.5 30.4318 4.5H6.47727C6.06647 4.49983 5.60092 4.68091 5.20288 5.12506C4.80051 5.57404 4.52278 6.23993 4.5 6.99645V32.6448ZM28.1818 42V36.8077H6.47727C6.05979 36.8077 5.58576 36.9952 5.18371 37.4561C4.77314 37.9268 4.5 38.6236 4.5 39.4038C4.5 40.1841 4.77314 40.8809 5.18371 41.3516C5.58576 41.8125 6.05979 42 6.47727 42H28.1818Z" fill="black"/>
<path d="M11.9067 18.25L16.7735 23.4453L14.4299 18.25H11.9067ZM18.25 24.2812L20.9764 18.25H15.5236L18.25 24.2812ZM14.4534 17.25L16.047 14.25H14.0003L11.7504 17.25H14.4534ZM19.7265 23.4453L24.5933 18.25H22.0701L19.7265 23.4453ZM15.5861 17.25H20.9139L19.3202 14.25H17.1798L15.5861 17.25ZM22.0466 17.25H24.7496L22.4997 14.25H20.453L22.0466 17.25ZM23.1481 13.4531L26.1479 17.4531C26.2208 17.5469 26.2547 17.6549 26.2495 17.7773C26.2443 17.8997 26.2 18.0052 26.1167 18.0938L18.6172 26.0937C18.5234 26.1979 18.401 26.25 18.25 26.25C18.099 26.25 17.9766 26.1979 17.8828 26.0937L10.3833 18.0938C10.3 18.0052 10.2557 17.8997 10.2505 17.7773C10.2453 17.6549 10.2792 17.5469 10.3521 17.4531L13.3519 13.4531C13.4456 13.3177 13.5784 13.25 13.7503 13.25H22.7497C22.9216 13.25 23.0544 13.3177 23.1481 13.4531Z" fill="black"/>
<path fill-rule="evenodd" clip-rule="evenodd" d="M16.7735 23.4453L14.4299 18.25H11.9067L16.7735 23.4453ZM15.0792 20.9053L14.107 18.75H13.0602L15.0792 20.9053ZM20.9764 18.25H15.5236L18.25 24.2812L20.9764 18.25ZM20.2016 18.75H16.2983L18.25 23.0674L20.2016 18.75ZM16.047 14.25H14.0003L11.7504 17.25H14.4534L16.047 14.25ZM15.2152 14.75H14.2503L12.7504 16.75H14.1528L15.2152 14.75ZM24.5933 18.25H22.0701L19.7265 23.4453L24.5933 18.25ZM23.4398 18.75H22.393L21.4208 20.9053L23.4398 18.75ZM20.9139 17.25L19.3202 14.25H17.1798L15.5861 17.25H20.9139ZM16.4179 16.75H20.0821L19.0197 14.75H17.4803L16.4179 16.75ZM24.7496 17.25L22.4997 14.25H20.453L22.0466 17.25H24.7496ZM23.7496 16.75L22.2497 14.75H21.2848L22.3472 16.75H23.7496ZM26.5457 17.1502L23.5529 13.1596C23.3611 12.8883 23.0736 12.75 22.7497 12.75H13.7503C13.4264 12.75 13.1389 12.8883 12.9471 13.1596L9.95427 17.1502C9.80831 17.3398 9.74097 17.5636 9.75097 17.7986C9.76123 18.0398 9.85281 18.2594 10.0189 18.4361C10.0188 18.4359 10.019 18.4362 10.0189 18.4361L17.5151 26.4326C17.7112 26.648 17.9715 26.75 18.25 26.75C18.5285 26.75 18.7887 26.648 18.9848 26.4326L26.4808 18.4364C26.4808 18.4364 26.4808 18.4364 26.4808 18.4364C26.647 18.2597 26.7388 18.0399 26.749 17.7986C26.759 17.5636 26.6917 17.3398 26.5457 17.1502ZM17.8828 26.0937C17.9766 26.1979 18.099 26.25 18.25 26.25C18.401 26.25 18.5234 26.1979 18.6172 26.0937L26.1167 18.0938C26.2 18.0052 26.2443 17.8997 26.2495 17.7773C26.2547 17.6549 26.2208 17.5469 26.1479 17.4531L23.1481 13.4531C23.0544 13.3177 22.9216 13.25 22.7497 13.25H13.7503C13.5784 13.25 13.4456 13.3177 13.3519 13.4531L10.3521 17.4531C10.2792 17.5469 10.2453 17.6549 10.2505 17.7773C10.2557 17.8997 10.3 18.0052 10.3833 18.0938L17.8828 26.0937Z" fill="black"/>
</svg>
