<svg width="24" height="24" viewBox="0 0 62 40" fill="none" xmlns="http://www.w3.org/2000/svg">
<g clip-path="url(#clip0_364_11841)">
<path d="M23.4221 18.8815C23.4221 17.4222 23.1098 16.2444 22.4927 15.3556C21.8756 14.4667 20.8644 14.0222 19.4592 14.0222C18.0539 14.0222 17.0799 14.4667 16.3885 15.3556C15.697 16.2444 15.3475 17.3926 15.3475 18.7852C15.3475 21.8667 16.6784 23.4074 19.3402 23.4074C20.6934 23.4074 21.712 23 22.3961 22.1778C23.0801 21.363 23.4221 20.2593 23.4221 18.8815ZM19.3625 21.6074C19.0726 21.6074 18.8198 21.5407 18.6116 21.4C18.4034 21.2593 18.2473 21.1111 18.1506 20.9407C18.0539 20.7704 17.9796 20.5407 17.9201 20.2444C17.8606 19.9481 17.8309 19.7111 17.8234 19.5333C17.816 19.3556 17.8086 19.1259 17.8086 18.837C17.8086 16.8296 18.3588 15.8222 19.4517 15.8222C20.4481 15.8222 20.9536 16.837 20.9536 18.8593C20.9536 20.6889 20.4183 21.6074 19.3551 21.6074H19.3625ZM31.9354 22.163C30.5822 22.163 29.5561 22.5926 28.8647 23.4519C28.1732 24.3111 27.8237 25.4296 27.8237 26.8148C27.8237 29.963 29.1546 31.5333 31.8164 31.5333C33.1696 31.5333 34.1882 31.1111 34.8723 30.2593C35.5563 29.4074 35.8983 28.2963 35.8983 26.9111C35.8983 23.7481 34.5749 22.163 31.9354 22.163ZM31.8387 29.7481C31.5487 29.7481 31.296 29.6741 31.0878 29.5333C30.8796 29.3852 30.7234 29.2222 30.6268 29.037C30.5301 28.8519 30.4558 28.6 30.3963 28.2889C30.3368 27.9778 30.3071 27.7333 30.2996 27.5556C30.2922 27.3778 30.2848 27.1407 30.2848 26.8296C30.2848 24.9185 30.835 23.963 31.9279 23.963C32.9243 23.963 33.4298 24.9259 33.4298 26.8519C33.4298 28.7778 32.8945 29.7407 31.8313 29.7407L31.8387 29.7481ZM59.5049 13.2519H59.5198C60.4492 13.2519 61.2002 12.5037 61.2002 11.5778V7.08148C61.2002 3.18519 58.003 0 54.0921 0H17.6971C14.2546 0 11.3846 2.44444 10.7303 5.68148H7.12426C3.19849 5.68148 0.0236816 8.85185 0.0236816 12.7556V17.2593C0.0236816 18.1852 0.774633 18.9333 1.70403 18.9333H1.88247C4.30633 18.9333 6.23204 21.1407 5.72645 23.637C5.54057 24.5704 5.00524 25.3407 4.28403 25.8889C3.56282 26.437 2.65573 26.7481 1.70403 26.7481C0.752327 26.7481 0.0236816 27.4963 0.0236816 28.4222V32.9185C0.0236816 36.8296 3.20593 40 7.13169 40H43.5194C46.9618 40 49.8392 37.5556 50.4935 34.3185H54.0921C58.0179 34.3185 61.2002 31.1481 61.2002 27.237V22.7407C61.2002 21.8148 60.4492 21.0667 59.5198 21.0667H59.3414C57.0439 21.0667 55.2074 19.0963 55.4305 16.7704C55.6312 14.7407 57.4603 13.2519 59.5049 13.2519ZM43.5194 36.2963H7.13169C5.25803 36.2963 3.74126 34.7852 3.74126 32.9185V30.2296C7.05734 29.4 9.52581 26.4 9.52581 22.837C9.52581 19.2741 7.05734 16.2889 3.74126 15.4593V12.7556C3.74126 10.8963 5.25803 9.38518 7.13169 9.38518H43.5194C45.3856 9.38518 46.9098 10.8963 46.9098 12.7556V15.4593C43.5863 16.2889 41.1252 19.2815 41.1252 22.837C41.1252 26.3926 43.5863 29.4 46.9098 30.2296V32.9185C46.9098 33.4148 46.7983 33.8889 46.6049 34.3185C46.0696 35.4815 44.8874 36.2963 43.5194 36.2963ZM57.4826 24.5407V27.237C57.4826 29.1037 55.9584 30.6148 54.0921 30.6148H50.6274V28.4222C50.6274 27.4963 49.869 26.7481 48.947 26.7481H48.7686C46.4711 26.7481 44.6346 24.7778 44.8577 22.4519C45.0584 20.4222 46.8875 18.9333 48.9321 18.9333H48.947C49.869 18.9333 50.6274 18.1852 50.6274 17.2593V12.763C50.6274 8.86667 47.4228 5.68148 43.5194 5.68148H14.6189C15.1542 4.51852 16.3364 3.7037 17.7045 3.7037H54.0921C55.9584 3.7037 57.4826 5.21481 57.4826 7.07407V9.77778C54.1591 10.6074 51.698 13.6 51.698 17.1556C51.698 20.7111 54.1591 23.7185 57.4826 24.5407ZM31.7421 13.8222L21.779 31.7185H19.6748L29.6825 13.8222H31.7346H31.7421Z" fill="black"/>
</g>
<defs>
<clipPath id="clip0_364_11841">
<rect width="61.1765" height="40" fill="white" transform="translate(0.0236816)"/>
</clipPath>
</defs>
</svg>
