<svg width="20" height="20" viewBox="0 0 44 40" fill="none" xmlns="http://www.w3.org/2000/svg">
<path d="M18.938 14.3824C18.938 15.4842 19.8044 16.1917 22.4984 16.876C25.1923 17.5602 28.0762 18.6853 28.0762 21.9791C28.0762 24.3568 26.2367 25.6674 23.9224 26.0965V28.5901H20.3621V26.0733C18.0835 25.5978 16.1372 24.1712 15.9948 21.6312H18.6057C18.7363 22.9998 19.6975 24.0668 22.1423 24.0668C24.7651 24.0668 25.3466 22.791 25.3466 21.9908C25.3466 20.9121 24.7532 19.8915 21.7863 19.1956C18.4752 18.4185 16.2084 17.0847 16.2084 14.4055C16.2084 12.1671 18.0598 10.7057 20.3621 10.2186V7.71341H23.9224V10.2534C26.4028 10.8449 27.6489 12.6774 27.732 14.6723H25.1092C25.0381 13.2225 24.2548 12.2367 22.1423 12.2367C20.1367 12.2367 18.938 13.1182 18.938 14.3824Z" fill="#2AA173"/>
<path fill-rule="evenodd" clip-rule="evenodd" d="M20.2499 39.3679C20.7159 39.7912 21.3084 40 21.901 40L21.8953 39.9942C22.4879 39.9942 23.0861 39.7854 23.5464 39.3621L43.2045 21.4255C43.7396 20.9442 43.9122 20.1961 43.6591 19.5293C43.4002 18.845 42.7559 18.4042 42.0195 18.4042H33.7926V2.73716C33.7926 1.22942 32.5096 1.34989e-05 30.9391 1.34989e-05H12.8629C11.2866 1.34989e-05 10.0094 1.22361 10.0094 2.73716V18.41H1.7826C1.04044 18.41 0.396097 18.8508 0.137167 19.5351C-0.115934 20.2019 0.0623746 20.95 0.591681 21.4313L20.2499 39.3679ZM21.901 36.9613L4.74537 21.3096L4.73385 21.3038H10.4639C11.7986 21.3038 12.8802 20.2541 12.8802 18.9667V2.90536H30.9046V18.9725C30.9046 20.2599 31.9918 21.3096 33.3208 21.3096H39.0509L21.901 36.9613Z" fill="#2AA173"/>
</svg>
