<svg width="20" height="20" viewBox="0 0 74 40" fill="none" xmlns="http://www.w3.org/2000/svg">
<path fill-rule="evenodd" clip-rule="evenodd" d="M23.7079 12.5C23.7079 14.4891 22.8761 16.3968 21.3956 17.8033C19.915 19.2098 17.907 20 15.8132 20C13.7193 20 11.7113 19.2098 10.2307 17.8033C8.75018 16.3968 7.91842 14.4891 7.91842 12.5C7.91842 10.5109 8.75018 8.60322 10.2307 7.1967C11.7113 5.79018 13.7193 5 15.8132 5C17.907 5 19.915 5.79018 21.3956 7.1967C22.8761 8.60322 23.7079 10.5109 23.7079 12.5ZM5.28684 31.8175C5.28684 31.5225 5.41052 31.1275 5.96052 30.6025C6.53421 30.0525 7.44473 29.4975 8.6421 29C11.0474 28 13.9789 27.5 15.8132 27.5C17.6474 27.5 20.5763 28 22.9842 29C24.1816 29.495 25.0895 30.05 25.6658 30.6C26.2184 31.1275 26.3395 31.5225 26.3395 31.8175V40H31.6026V31.8175C31.6026 29.8475 30.6289 28.255 29.4 27.0775C28.1921 25.925 26.6368 25.06 25.0921 24.4175C22.0184 23.1425 18.3684 22.5 15.8132 22.5C13.2553 22.5 9.60789 23.1425 6.53421 24.4175C4.98947 25.06 3.43421 25.925 2.22631 27.0775C0.997365 28.255 0.0236816 29.8475 0.0236816 31.8175V40H5.28684V31.8175ZM48.0658 30.6025C47.5132 31.1275 47.3921 31.5225 47.3921 31.8175V40H42.1289V31.8175C42.1289 29.8475 43.1026 28.255 44.3316 27.0775C45.5395 25.925 47.0947 25.06 48.6395 24.4175C51.7132 23.1425 55.3632 22.5 57.9184 22.5C60.4737 22.5 64.1237 23.1425 67.1974 24.4175C68.7421 25.06 70.2974 25.925 71.5053 27.0775C72.7368 28.255 73.7079 29.8475 73.7079 31.8175V40H68.4447V31.8175C68.4447 31.5225 68.321 31.1275 67.771 30.6025C67.1974 30.0525 66.2868 29.4975 65.0895 29C62.6842 28 59.7526 27.5 57.9184 27.5C56.0842 27.5 53.1553 28 50.7474 29C49.55 29.495 48.6421 30.0525 48.0658 30.6025ZM57.9184 20C60.0122 20 62.0203 19.2098 63.5008 17.8033C64.9814 16.3968 65.8132 14.4891 65.8132 12.5C65.8132 10.5109 64.9814 8.60322 63.5008 7.1967C62.0203 5.79018 60.0122 5 57.9184 5C55.8246 5 53.8165 5.79018 52.336 7.1967C50.8554 8.60322 50.0237 10.5109 50.0237 12.5C50.0237 14.4891 50.8554 16.3968 52.336 17.8033C53.8165 19.2098 55.8246 20 57.9184 20ZM44.7605 7.5C44.7605 9.48912 43.9288 11.3968 42.4482 12.8033C40.9677 14.2098 38.9596 15 36.8658 15C34.772 15 32.7639 14.2098 31.2834 12.8033C29.8028 11.3968 28.9711 9.48912 28.9711 7.5C28.9711 5.51087 29.8028 3.60322 31.2834 2.1967C32.7639 0.790175 34.772 0 36.8658 0C38.9596 0 40.9677 0.790175 42.4482 2.1967C43.9288 3.60322 44.7605 5.51087 44.7605 7.5ZM32.25 25.415C32.4342 25.2175 32.6921 25.0575 33.4368 24.99C33.9218 24.9527 34.4086 24.9427 34.8947 24.96L35.4263 24.9725C35.8737 24.985 36.3816 25 36.8658 25C37.35 25 37.8579 24.985 38.3053 24.975L38.8368 24.96C39.323 24.942 39.8098 24.9512 40.2947 24.9875C41.0395 25.0575 41.2947 25.2175 41.4816 25.415L45.4079 22.085C44.0263 20.615 42.3026 20.15 40.8079 20.01C39.9026 19.9275 38.7816 19.9575 37.8605 19.98C37.4868 19.99 37.1447 20 36.8658 20C36.5868 20 36.2447 19.99 35.871 19.98C34.95 19.955 33.8289 19.93 32.9237 20.0125C31.4289 20.15 29.7053 20.615 28.3237 22.085L32.25 25.415Z" fill="black"/>
</svg>
