<svg width="20" height="20" viewBox="0 0 44 40" fill="none" xmlns="http://www.w3.org/2000/svg">
<path fill-rule="evenodd" clip-rule="evenodd" d="M23.5475 0.632079C23.0815 0.208757 22.4889 5.18052e-08 21.8963 0L21.9021 0.0058055C21.3095 0.00580544 20.7112 0.214562 20.251 0.637884L0.59282 18.5745C0.0577544 19.0558 -0.114868 19.8039 0.138303 20.4707C0.397163 21.155 1.0415 21.5958 1.77791 21.5958H10.0048L10.0048 37.2628C10.0048 38.7706 11.2877 40 12.8583 40H30.9344C32.5108 40 33.7879 38.7764 33.7879 37.2628L33.7879 21.59H42.0148C42.7569 21.59 43.4013 21.1492 43.6602 20.4649C43.9133 19.7981 43.735 19.05 43.2057 18.5687L23.5475 0.632079ZM21.8963 3.03871L39.052 18.6904L39.0635 18.6962L33.3334 18.6962C31.9987 18.6962 30.9172 19.7459 30.9172 21.0333V37.0947L12.8928 37.0946L12.8928 21.0275C12.8928 19.7401 11.8055 18.6904 10.4765 18.6904L4.74651 18.6904L21.8963 3.03871Z" fill="#EA3434"/>
<path d="M21.6273 15.4167C24.1257 15.4167 25.0521 16.5972 25.1364 18.3333H28.2383C28.1401 15.9444 26.6663 13.75 23.7327 13.0417V10H19.5219V13C18.9745 13.1111 18.4692 13.2917 17.9779 13.5L20.0974 15.5972C20.5465 15.4861 21.0659 15.4167 21.6273 15.4167ZM13.2528 12.7708L11.2737 14.7292L14.6092 18.0139C14.6092 20.9028 16.7989 22.4861 20.0974 23.4444L25.0241 28.3194C24.5468 29 23.5503 29.5833 21.6273 29.5833C18.7359 29.5833 17.5989 28.3056 17.4445 26.6667H14.3566C14.525 29.7083 16.8269 31.4167 19.5219 31.9861V35H23.7327V32.0139C25.0802 31.7639 26.3014 31.25 27.1856 30.4583L28.1975 31.4375L30.1766 29.4792L13.2528 12.7708Z" fill="#EA3434"/>
</svg>
