<svg width="24" height="24" viewBox="0 0 63 52" fill="none" xmlns="http://www.w3.org/2000/svg">
<path d="M49.0786 0H5.47423C2.44918 0 0.0509344 2.42549 0.0509344 5.45055L0.0236816 38.1538C0.0236816 41.1789 2.44918 43.6044 5.47423 43.6044H32.727V38.1538H5.47423V21.8022H54.5292V5.45055C54.5292 2.42549 52.1037 0 49.0786 0ZM49.0786 10.9011H5.47423V5.45055H49.0786V10.9011Z" fill="black"/>
<path d="M48.3973 51.4396C44.6273 51.4396 41.4138 50.111 38.7567 47.4538C36.0995 44.7967 34.7709 41.5832 34.7709 37.8132C34.7709 34.0432 36.0995 30.8297 38.7567 28.1725C41.4138 25.5154 44.6273 24.1868 48.3973 24.1868C52.1673 24.1868 55.3808 25.5154 58.038 28.1725C60.6951 30.8297 62.0237 34.0432 62.0237 37.8132C62.0237 41.5832 60.6951 44.7967 58.038 47.4538C55.3808 50.111 52.1673 51.4396 48.3973 51.4396ZM47.0347 45.989H49.7599V35.0879H47.0347V45.989ZM48.3973 32.3626C48.7607 32.3626 49.0786 32.2264 49.3512 31.9538C49.6237 31.6813 49.7599 31.3634 49.7599 31C49.7599 30.6366 49.6237 30.3187 49.3512 30.0462C49.0786 29.7736 48.7607 29.6374 48.3973 29.6374C48.0339 29.6374 47.716 29.7736 47.4435 30.0462C47.1709 30.3187 47.0347 30.6366 47.0347 31C47.0347 31.3634 47.1709 31.6813 47.4435 31.9538C47.716 32.2264 48.0339 32.3626 48.3973 32.3626Z" fill="black"/>
</svg>
