<svg width="24" height="24" viewBox="0 0 57 46" fill="none" xmlns="http://www.w3.org/2000/svg">
<path fill-rule="evenodd" clip-rule="evenodd" d="M16.7953 19.9111C22.2942 19.9111 26.748 15.456 26.748 9.95556C26.748 4.45511 22.2942 0 16.7953 0C11.2964 0 6.84252 4.45511 6.84252 9.95556C6.84252 15.456 11.2964 19.9111 16.7953 19.9111ZM16.7953 4.97778C19.5323 4.97778 21.7717 7.21778 21.7717 9.95556C21.7717 12.6933 19.5323 14.9333 16.7953 14.9333C14.0583 14.9333 11.8189 12.6933 11.8189 9.95556C11.8189 7.21778 14.0583 4.97778 16.7953 4.97778Z" fill="#1E1E1E"/>
<path d="M4.97638 34.8444V33.2267C4.97638 32.3804 5.37449 31.584 5.99653 31.2107C10.2016 28.6969 15.0038 27.3778 19.9055 27.3778C19.9802 27.3778 20.0299 27.3778 20.1046 27.4027C20.3534 25.6604 20.851 23.9929 21.5726 22.4747C21.0252 22.4249 20.4778 22.4 19.9055 22.4C13.8841 22.4 8.26079 24.0676 3.45858 26.9298C1.26898 28.224 0 30.6631 0 33.2267V39.8222H23.0406C21.9956 38.3289 21.1745 36.6364 20.6271 34.8444H4.97638Z" fill="#1E1E1E"/>
<path fill-rule="evenodd" clip-rule="evenodd" d="M56.0237 29.7778C56.0237 38.6143 48.8602 45.7778 40.0237 45.7778C31.1871 45.7778 24.0237 38.6143 24.0237 29.7778C24.0237 20.9412 31.1871 13.7778 40.0237 13.7778C48.8602 13.7778 56.0237 20.9412 56.0237 29.7778ZM47.6765 29.0287C47.9914 28.7083 48.1026 28.2382 47.9667 27.8011C47.8306 27.364 47.4759 27.052 47.0402 26.9858L43.1661 26.3983C43.0011 26.3732 42.8586 26.2652 42.7849 26.109L41.0529 22.4452C40.8584 22.0336 40.4637 21.7778 40.0238 21.7778C39.5843 21.7778 39.1896 22.0336 38.9951 22.4452L37.2628 26.1093C37.1891 26.2655 37.0462 26.3735 36.8812 26.3986L33.0072 26.9861C32.5718 27.052 32.2168 27.3644 32.0806 27.8014C31.9448 28.2385 32.056 28.7087 32.3709 29.029L35.1739 31.8809C35.2934 32.0026 35.3482 32.1778 35.32 32.349L34.6587 36.3759C34.6001 36.7304 34.6892 37.0752 34.909 37.3471C35.2505 37.7707 35.8467 37.8998 36.3234 37.6383L39.788 35.7369C39.9329 35.6576 40.1152 35.6583 40.2596 35.7369L43.7246 37.6383C43.8931 37.731 44.0728 37.7778 44.2583 37.7778C44.597 37.7778 44.918 37.6206 45.1387 37.3471C45.3588 37.0752 45.4476 36.7297 45.3889 36.3759L44.7273 32.349C44.6992 32.1775 44.7539 32.0026 44.8734 31.8809L47.6765 29.0287Z" fill="#1E1E1E"/>
</svg>
