<svg width="12" height="10" viewBox="0 0 12 10" fill="none" xmlns="http://www.w3.org/2000/svg">
<path d="M1.32058 4.26154L4.8085 7.92757L3.12892 4.26154H1.32058ZM5.86663 8.51744L7.82054 4.26154H3.91272L5.86663 8.51744ZM3.14572 3.5559L4.28783 1.43898H2.821L1.2086 3.5559H3.14572ZM6.92477 7.92757L10.4127 4.26154H8.60435L6.92477 7.92757ZM3.95751 3.5559H7.77575L6.63364 1.43898H5.09963L3.95751 3.5559ZM8.58755 3.5559H10.5247L8.91227 1.43898H7.44544L8.58755 3.5559ZM9.37695 0.876671L11.5268 3.69923C11.5791 3.76539 11.6033 3.84165 11.5996 3.92802C11.5959 4.01438 11.5641 4.08881 11.5044 4.15129L6.12977 9.79641C6.06258 9.86992 5.97487 9.90667 5.86663 9.90667C5.75839 9.90667 5.67068 9.86992 5.6035 9.79641L0.22885 4.15129C0.169132 4.08881 0.137406 4.01438 0.133674 3.92802C0.129942 3.84165 0.154202 3.76539 0.206456 3.69923L2.35632 0.876671C2.4235 0.781115 2.51867 0.733337 2.64184 0.733337H9.09142C9.21459 0.733337 9.30977 0.781115 9.37695 0.876671Z" fill="#FE9923"/>
</svg>
